<svg width="32" height="32" xmlns="http://www.w3.org/2000/svg"><rect width="17.908" height="29.908" x="7.046" y="1.046" ry="4.283" fill="none" stroke="#fff" stroke-width="2.092" stroke-linecap="round" stroke-linejoin="round" stroke-dasharray="33.47 4.184" stroke-dashoffset="1.046"/><path d="M12.483 1.983h6.844a.19.19 45 01.19.19v.3a.19.19 135 01-.19.19h-6.654a.19.19 45 01-.19-.19z" transform="matrix(1.12385 0 0 1.13053 -1.982 -.112)" fill="none" stroke="#fff" stroke-width="2" stroke-linecap="round" stroke-linejoin="bevel" stroke-dashoffset="1"/><circle cx="12" cy="14" r="1.5" fill="#fff"/><circle cx="20" cy="14" r="1.5" fill="#fff"/><path d="M20.875 22.313c0 1.553-2.07 2.812-4.625 2.812-2.554 0-4.625-1.26-4.625-2.813 0 0 0 0 0 0z" transform="matrix(.53341 0 0 .50186 7.333 6.304)" fill="#fff" stroke="#fff" stroke-width="2" stroke-linecap="round" stroke-linejoin="round" stroke-dashoffset="6"/></svg>